<svg width="25" height="26" viewBox="0 0 25 26" fill="none" xmlns="http://www.w3.org/2000/svg">
<path d="M8 1.49952H2.66667C1.95942 1.49952 1.28115 1.78047 0.781048 2.28057C0.280951 2.78067 0 3.45895 0 4.16619V9.49952C0 10.2068 0.280951 10.885 0.781048 11.3851C1.28115 11.8852 1.95942 12.1662 2.66667 12.1662H8C8.70724 12.1662 9.38552 11.8852 9.88562 11.3851C10.3857 10.885 10.6667 10.2068 10.6667 9.49952V4.16619C10.6667 3.45895 10.3857 2.78067 9.88562 2.28057C9.38552 1.78047 8.70724 1.49952 8 1.49952ZM8 14.8329H2.66667C1.95942 14.8329 1.28115 15.1138 0.781048 15.6139C0.280951 16.114 0 16.7923 0 17.4995V22.8329C0 23.5401 0.280951 24.2184 0.781048 24.7185C1.28115 25.2186 1.95942 25.4995 2.66667 25.4995H8C8.70724 25.4995 9.38552 25.2186 9.88562 24.7185C10.3857 24.2184 10.6667 23.5401 10.6667 22.8329V17.4995C10.6667 16.7923 10.3857 16.114 9.88562 15.6139C9.38552 15.1138 8.70724 14.8329 8 14.8329ZM24.2133 4.95286L20.5467 1.28619C20.047 0.78952 19.3712 0.510742 18.6667 0.510742C17.9622 0.510742 17.2863 0.78952 16.7867 1.28619L13.12 4.95286C12.6233 5.45249 12.3446 6.12836 12.3446 6.83286C12.3446 7.53735 12.6233 8.21322 13.12 8.71286L16.7867 12.3795C17.2863 12.8762 17.9622 13.155 18.6667 13.155C19.3712 13.155 20.047 12.8762 20.5467 12.3795L24.2133 8.71286C24.71 8.21322 24.9888 7.53735 24.9888 6.83286C24.9888 6.12836 24.71 5.45249 24.2133 4.95286V4.95286ZM21.3333 14.8329H16C15.2928 14.8329 14.6145 15.1138 14.1144 15.6139C13.6143 16.114 13.3333 16.7923 13.3333 17.4995V22.8329C13.3333 23.5401 13.6143 24.2184 14.1144 24.7185C14.6145 25.2186 15.2928 25.4995 16 25.4995H21.3333C22.0406 25.4995 22.7189 25.2186 23.2189 24.7185C23.719 24.2184 24 23.5401 24 22.8329V17.4995C24 16.7923 23.719 16.114 23.2189 15.6139C22.7189 15.1138 22.0406 14.8329 21.3333 14.8329Z" fill="#F5F5F5"/>
</svg>
